<svg id="svg" version="1.1" xmlns="http://www.w3.org/2000/svg" xmlns:xlink="http://www.w3.org/1999/xlink" width="400" height="125.77319587628867" viewBox="0, 0, 400,125.77319587628867"><g id="svgg"><path id="path0" d="M53.917 30.974 C 53.095 31.454,52.469 32.071,50.333 34.505 C 49.737 35.184,48.725 36.294,48.083 36.972 C 47.442 37.649,46.482 38.664,45.950 39.227 C 45.418 39.790,44.819 40.400,44.618 40.583 C 44.417 40.767,43.989 41.214,43.668 41.576 C 43.346 41.939,42.867 42.427,42.603 42.660 C 41.935 43.249,40.958 44.236,39.854 45.437 C 38.051 47.399,35.058 50.533,31.917 53.747 C 24.012 61.833,24.042 61.074,31.333 68.477 C 35.691 72.901,41.667 79.286,41.667 79.517 C 41.667 79.589,42.135 80.005,42.708 80.442 C 44.334 81.682,48.766 86.255,49.760 87.718 C 49.970 88.026,50.339 88.408,50.581 88.567 C 50.823 88.725,51.239 89.199,51.506 89.619 C 52.095 90.548,54.456 91.959,54.962 91.685 C 57.005 90.577,57.082 87.958,55.129 86.063 C 54.737 85.683,53.854 84.715,53.167 83.912 C 52.479 83.110,50.792 81.357,49.417 80.018 C 48.042 78.679,45.304 75.937,43.333 73.923 C 41.362 71.910,38.162 68.668,36.221 66.718 C 31.458 61.933,31.145 60.787,33.928 58.326 C 34.182 58.101,34.622 57.665,34.904 57.357 C 35.186 57.050,35.633 56.600,35.897 56.357 C 36.161 56.115,36.573 55.698,36.813 55.431 C 37.181 55.022,37.974 54.237,38.972 53.293 C 39.094 53.178,39.483 52.783,39.838 52.417 C 40.192 52.050,40.639 51.600,40.830 51.417 C 41.020 51.233,42.185 50.033,43.417 48.750 C 46.046 46.011,45.719 46.338,47.500 44.667 C 48.279 43.935,49.029 43.221,49.167 43.078 C 49.965 42.253,51.872 40.209,52.616 39.380 C 53.936 37.912,54.945 36.879,56.500 35.406 C 58.450 33.558,59.667 32.275,59.667 32.066 C 59.667 30.875,55.456 30.075,53.917 30.974 M63.652 32.154 C 62.366 33.141,62.023 33.476,60.833 34.902 C 60.329 35.506,59.654 36.243,59.333 36.540 C 59.012 36.837,58.450 37.404,58.083 37.800 C 57.228 38.723,55.048 40.911,54.222 41.674 C 53.871 41.999,53.353 42.524,53.071 42.840 C 52.789 43.157,52.377 43.579,52.154 43.778 C 51.932 43.976,51.225 44.711,50.583 45.412 C 48.808 47.350,43.836 52.483,43.084 53.155 C 42.718 53.482,42.193 54.007,41.918 54.322 C 41.642 54.637,40.951 55.387,40.381 55.989 C 36.994 59.569,36.478 60.429,36.907 61.788 C 37.632 64.088,39.648 64.192,41.569 62.028 C 42.443 61.043,48.378 54.820,50.833 52.315 C 51.337 51.800,52.275 50.793,52.917 50.076 C 56.185 46.426,58.211 44.382,59.307 43.627 C 59.708 43.352,60.182 42.878,60.361 42.574 C 60.541 42.270,60.941 41.871,61.252 41.688 C 61.569 41.500,61.984 41.030,62.200 40.611 C 62.415 40.195,62.968 39.565,63.458 39.180 C 63.940 38.802,64.333 38.421,64.333 38.333 C 64.333 37.881,65.111 37.658,66.012 37.851 C 66.836 38.028,67.047 38.185,68.763 39.896 C 69.784 40.916,71.543 42.612,72.670 43.667 C 73.797 44.721,75.595 46.446,76.666 47.500 C 77.736 48.554,79.209 49.979,79.938 50.667 C 83.521 54.042,87.846 58.221,90.660 61.026 L 93.779 64.136 94.720 64.253 C 96.266 64.447,96.667 63.952,96.667 61.854 C 96.667 60.407,95.831 59.054,93.564 56.833 C 92.769 56.054,91.566 54.873,90.890 54.208 C 90.215 53.544,89.601 53.000,89.526 53.000 C 89.451 53.000,89.286 52.807,89.160 52.572 C 89.034 52.336,88.488 51.810,87.946 51.403 C 87.404 50.996,86.811 50.472,86.628 50.239 C 86.445 50.006,85.910 49.531,85.439 49.182 C 84.969 48.834,83.831 47.807,82.912 46.899 C 81.993 45.992,80.193 44.276,78.912 43.086 C 77.631 41.896,75.683 40.055,74.583 38.995 C 73.483 37.935,72.170 36.724,71.664 36.304 C 71.159 35.885,69.959 34.749,68.998 33.781 C 66.309 31.073,65.415 30.801,63.652 32.154 M63.712 43.019 C 60.983 44.068,61.771 45.806,67.519 51.417 C 71.011 54.824,73.591 57.436,76.496 60.500 C 77.843 61.921,80.710 64.866,82.869 67.046 L 86.793 71.008 86.874 71.963 C 86.999 73.434,86.603 73.969,83.141 77.006 C 82.256 77.782,81.356 78.573,81.141 78.763 C 80.926 78.954,80.436 79.442,80.053 79.847 C 79.670 80.252,79.202 80.733,79.014 80.917 C 78.414 81.501,76.750 83.388,76.075 84.250 C 75.108 85.484,73.189 87.518,71.804 88.779 C 68.522 91.764,64.672 95.521,63.977 96.417 C 63.053 97.607,63.063 97.596,60.696 99.883 C 59.672 100.873,58.833 101.781,58.833 101.899 C 58.833 102.964,62.401 103.629,64.433 102.943 C 65.315 102.646,66.470 101.558,69.167 98.484 C 70.095 97.425,72.963 94.608,75.521 92.242 C 75.922 91.871,76.925 90.789,77.750 89.837 C 82.134 84.782,84.633 82.167,86.627 80.552 C 87.477 79.864,88.522 78.840,88.950 78.276 C 89.378 77.712,90.413 76.500,91.250 75.583 C 93.430 73.195,93.717 72.532,93.183 71.126 C 93.009 70.670,88.460 65.691,86.976 64.333 C 85.484 62.968,83.311 60.779,81.250 58.564 C 76.635 53.605,66.869 43.767,65.924 43.126 C 65.129 42.586,64.870 42.574,63.712 43.019 M111.449 51.176 C 110.434 51.331,109.641 51.776,109.291 52.387 C 108.932 53.014,108.902 72.746,109.258 74.199 C 109.570 75.474,111.811 77.822,112.954 78.073 C 113.483 78.189,113.730 78.399,114.600 79.470 C 115.090 80.074,117.191 81.555,118.091 81.931 C 118.780 82.218,138.605 82.276,141.037 81.997 C 143.492 81.716,146.907 80.475,147.764 79.553 C 150.289 76.838,150.108 69.397,147.477 67.736 C 147.102 67.499,146.561 67.085,146.273 66.816 C 145.985 66.547,145.412 66.079,145.000 65.777 C 144.062 65.088,144.065 64.978,145.092 62.500 C 147.309 57.147,145.330 52.870,139.988 51.476 C 138.467 51.079,113.791 50.820,111.449 51.176 M173.300 51.242 C 172.157 51.493,171.561 51.858,171.192 52.535 C 171.041 52.814,170.562 53.595,170.128 54.271 C 169.695 54.947,169.185 55.803,168.996 56.174 C 168.807 56.545,168.405 57.126,168.104 57.466 C 167.802 57.805,167.178 58.721,166.719 59.500 C 165.055 62.318,164.454 63.259,164.003 63.750 C 163.750 64.025,163.260 64.699,162.914 65.249 C 162.569 65.798,161.948 66.661,161.535 67.166 C 161.123 67.670,160.680 68.332,160.552 68.636 C 160.424 68.940,160.024 69.509,159.664 69.900 C 159.299 70.296,158.794 71.137,158.526 71.798 C 158.260 72.451,157.864 73.201,157.646 73.465 C 157.428 73.730,157.063 74.265,156.833 74.654 C 156.604 75.044,156.183 75.681,155.897 76.071 C 153.011 80.002,152.788 81.309,154.897 81.915 C 156.536 82.387,158.438 81.540,159.261 79.971 C 159.390 79.726,159.798 79.176,160.169 78.748 C 160.539 78.320,160.990 77.679,161.171 77.324 C 161.622 76.442,163.123 75.030,163.833 74.821 C 164.216 74.709,168.276 74.667,175.620 74.700 L 186.823 74.750 187.847 75.750 C 188.411 76.300,189.137 77.162,189.462 77.667 C 189.787 78.171,190.247 78.818,190.485 79.105 C 190.722 79.393,191.286 80.085,191.737 80.644 C 192.879 82.059,194.830 82.523,196.542 81.786 L 197.167 81.517 197.167 80.449 C 197.167 79.400,197.146 79.351,195.987 77.649 C 195.338 76.696,194.607 75.584,194.362 75.177 C 194.117 74.770,193.651 74.132,193.325 73.760 C 192.719 73.066,190.258 69.343,189.768 68.379 C 189.618 68.083,188.781 66.782,187.908 65.487 C 187.035 64.193,186.052 62.598,185.722 61.942 C 185.393 61.287,184.941 60.533,184.718 60.267 C 184.495 60.001,184.097 59.356,183.833 58.833 C 183.569 58.311,183.165 57.659,182.934 57.385 C 182.704 57.111,182.166 56.296,181.739 55.574 C 181.034 54.381,180.695 53.933,179.074 52.051 C 178.266 51.112,175.599 50.739,173.300 51.242 M222.585 51.124 C 221.692 51.193,221.296 51.451,220.858 52.250 C 220.609 52.703,220.583 54.032,220.583 66.333 C 220.583 80.605,220.589 80.716,221.325 81.667 L 221.648 82.083 234.991 82.128 C 250.236 82.179,248.847 82.315,250.459 80.611 C 251.402 79.614,251.497 79.267,251.093 78.299 C 250.629 77.189,251.346 77.258,239.433 77.167 C 227.299 77.073,227.745 77.119,226.984 75.894 L 226.583 75.250 226.496 64.250 C 226.403 52.538,226.418 52.735,225.557 51.936 C 225.150 51.558,223.772 50.948,223.512 51.030 C 223.460 51.047,223.042 51.089,222.585 51.124 M261.875 51.313 C 259.873 52.005,259.983 51.116,259.975 66.690 L 259.969 79.861 260.365 80.639 C 261.154 82.190,259.811 82.078,278.083 82.124 L 294.083 82.164 294.738 81.790 C 296.579 80.739,296.517 78.640,294.615 77.623 L 293.917 77.250 280.583 77.199 C 265.770 77.143,266.917 77.239,265.997 75.969 C 265.246 74.933,265.230 71.255,265.972 70.233 C 266.878 68.986,265.693 69.092,279.734 69.000 L 292.417 68.917 293.184 68.539 C 294.759 67.763,294.822 66.745,293.396 65.165 C 292.357 64.016,293.243 64.091,279.667 64.000 L 267.250 63.917 266.628 63.530 C 265.495 62.825,265.013 60.115,265.649 58.021 C 266.238 56.080,264.767 56.263,280.576 56.167 C 292.888 56.092,294.300 56.056,294.750 55.808 C 296.955 54.591,296.108 51.526,293.463 51.150 C 291.318 50.844,262.805 50.992,261.875 51.313 M205.574 51.345 C 204.856 51.554,204.315 52.196,204.153 53.033 C 203.826 54.725,203.974 79.296,204.316 79.965 C 205.258 81.811,208.330 81.147,209.456 78.854 L 209.917 77.917 209.917 65.303 L 209.917 52.688 209.417 52.157 C 208.546 51.231,207.051 50.915,205.574 51.345 M302.719 51.340 C 301.772 51.633,301.242 52.580,301.778 53.021 C 301.930 53.147,302.313 53.653,302.629 54.145 C 302.945 54.638,305.351 57.200,307.976 59.840 C 310.602 62.480,313.050 64.964,313.417 65.361 C 313.783 65.758,314.292 66.271,314.546 66.500 C 314.801 66.729,315.363 67.295,315.796 67.757 C 316.229 68.219,317.175 69.141,317.898 69.804 C 319.817 71.566,319.999 72.135,320.004 76.383 C 320.009 81.041,320.990 82.586,323.564 81.993 C 325.531 81.539,325.833 80.793,325.833 76.402 C 325.833 72.126,325.896 71.982,329.147 68.779 C 330.465 67.480,333.578 64.354,336.064 61.833 C 338.549 59.313,341.117 56.725,341.770 56.083 C 343.244 54.635,344.500 53.008,344.500 52.549 C 344.500 51.218,341.952 50.716,339.955 51.654 C 338.863 52.166,338.580 52.424,334.143 56.935 C 332.801 58.300,331.091 59.979,330.342 60.667 C 329.593 61.354,328.066 62.821,326.948 63.927 C 324.997 65.857,324.873 65.948,323.812 66.231 L 322.708 66.526 321.680 66.007 C 320.832 65.579,319.760 64.601,315.535 60.403 C 307.480 52.399,306.892 51.841,306.230 51.564 C 305.466 51.245,303.443 51.116,302.719 51.340 M136.025 56.158 C 138.810 56.451,140.165 57.669,140.166 59.882 C 140.168 63.696,138.500 64.099,123.250 63.966 C 113.945 63.886,114.250 64.033,114.250 59.638 C 114.250 56.585,114.260 56.563,115.785 56.235 C 116.954 55.984,133.764 55.920,136.025 56.158 M177.167 58.212 C 177.573 58.875,178.155 59.754,178.461 60.167 C 179.266 61.251,180.930 63.874,181.398 64.793 C 181.619 65.228,182.032 65.875,182.316 66.231 C 182.803 66.841,183.019 67.386,183.268 68.634 C 183.467 69.626,183.151 69.667,175.164 69.667 C 168.122 69.667,167.696 69.636,167.039 69.087 C 166.773 68.865,167.642 66.801,168.310 66.066 C 169.049 65.252,170.577 62.985,171.531 61.284 C 171.778 60.844,172.209 60.222,172.490 59.902 C 172.771 59.583,173.180 58.968,173.399 58.536 C 173.936 57.477,174.320 57.166,175.276 57.019 C 176.352 56.854,176.322 56.835,177.167 58.212 M25.040 67.554 C 23.292 68.525,23.719 72.212,25.811 74.215 C 26.419 74.797,27.288 75.718,27.743 76.262 C 28.692 77.397,30.901 79.575,32.000 80.458 C 32.862 81.151,32.756 81.051,36.357 84.618 C 37.856 86.103,39.533 87.819,40.083 88.431 C 41.588 90.105,43.527 91.945,45.054 93.148 C 45.903 93.817,51.316 99.248,51.931 100.048 C 52.604 100.923,54.334 101.577,55.111 101.250 C 55.637 101.028,58.500 98.308,58.500 98.029 C 58.500 97.946,58.781 97.686,59.125 97.451 C 59.922 96.908,61.959 94.940,62.573 94.123 C 62.831 93.778,63.213 93.453,63.421 93.401 C 63.763 93.315,65.301 91.797,67.795 89.083 C 69.952 86.737,71.451 85.212,71.932 84.876 C 72.215 84.678,72.623 84.258,72.838 83.944 C 73.054 83.629,73.394 83.270,73.595 83.144 C 74.754 82.423,80.765 76.603,81.178 75.802 C 81.353 75.464,81.724 75.053,82.002 74.889 C 83.400 74.063,84.031 71.489,83.079 70.495 C 81.684 69.040,80.278 69.475,77.759 72.140 C 76.749 73.209,74.883 75.096,73.611 76.333 C 72.340 77.571,69.717 80.196,67.782 82.167 C 61.876 88.181,55.901 94.075,54.978 94.796 C 54.525 95.150,52.775 94.295,52.199 93.438 C 51.948 93.064,51.431 92.548,51.049 92.292 C 50.668 92.036,50.200 91.574,50.009 91.264 C 49.817 90.954,49.456 90.572,49.205 90.414 C 48.955 90.256,48.337 89.723,47.833 89.231 C 47.329 88.738,46.195 87.633,45.314 86.776 C 44.432 85.918,43.645 85.109,43.564 84.979 C 43.483 84.848,43.095 84.491,42.702 84.185 C 42.309 83.879,41.836 83.332,41.651 82.970 C 41.467 82.608,41.059 82.160,40.746 81.976 C 40.433 81.791,40.018 81.382,39.823 81.066 C 39.628 80.751,39.194 80.288,38.859 80.038 C 38.524 79.788,37.827 79.171,37.311 78.667 C 36.794 78.162,35.871 77.300,35.258 76.750 C 34.646 76.200,33.943 75.529,33.697 75.260 C 33.451 74.990,32.781 74.300,32.208 73.726 C 31.635 73.151,31.167 72.613,31.167 72.530 C 31.167 72.447,30.861 72.167,30.488 71.909 C 30.115 71.650,29.692 71.209,29.547 70.928 C 29.236 70.322,27.145 68.041,26.520 67.626 C 26.008 67.286,25.563 67.264,25.040 67.554 M140.442 69.363 C 141.672 69.816,143.275 70.877,143.411 71.327 C 144.292 74.252,143.339 75.945,140.232 76.977 C 138.741 77.472,138.207 77.493,126.768 77.504 L 116.121 77.514 115.471 77.084 C 113.788 75.970,113.495 71.118,115.026 69.729 C 116.055 68.794,115.445 68.835,127.833 68.881 L 139.250 68.925 140.442 69.363 " stroke="none" fill="#354394" fill-rule="evenodd"></path><path id="path1" d="M0.000 62.833 L 0.000 125.667 200.000 125.667 L 400.000 125.667 400.000 62.833 L 400.000 0.000 200.000 0.000 L 0.000 0.000 0.000 62.833 M58.145 30.927 C 58.876 31.147,59.667 31.739,59.667 32.066 C 59.667 32.275,58.450 33.558,56.500 35.406 C 54.945 36.879,53.936 37.912,52.616 39.380 C 51.872 40.209,49.965 42.253,49.167 43.078 C 49.029 43.221,48.279 43.935,47.500 44.667 C 45.719 46.338,46.046 46.011,43.417 48.750 C 42.185 50.033,41.020 51.233,40.830 51.417 C 40.639 51.600,40.192 52.050,39.838 52.417 C 39.483 52.783,39.094 53.178,38.972 53.293 C 37.974 54.237,37.181 55.022,36.813 55.431 C 36.573 55.698,36.161 56.115,35.897 56.357 C 35.633 56.600,35.186 57.050,34.904 57.357 C 34.622 57.665,34.182 58.101,33.928 58.326 C 33.293 58.887,32.167 60.615,32.167 61.028 C 32.167 62.495,32.543 63.023,36.221 66.718 C 38.162 68.668,41.362 71.910,43.333 73.923 C 45.304 75.937,48.042 78.679,49.417 80.018 C 50.792 81.357,52.479 83.110,53.167 83.912 C 53.854 84.715,54.737 85.683,55.129 86.063 C 57.082 87.958,57.005 90.577,54.962 91.685 C 54.456 91.959,52.095 90.548,51.506 89.619 C 51.239 89.199,50.823 88.725,50.581 88.567 C 50.339 88.408,49.970 88.026,49.760 87.718 C 48.766 86.255,44.334 81.682,42.708 80.442 C 42.135 80.005,41.667 79.589,41.667 79.517 C 41.667 79.286,35.691 72.901,31.333 68.477 C 26.207 63.272,25.833 62.773,25.833 61.133 C 25.833 60.251,27.304 58.466,31.917 53.747 C 35.058 50.533,38.051 47.399,39.854 45.437 C 40.958 44.236,41.935 43.249,42.603 42.660 C 42.867 42.427,43.346 41.939,43.668 41.576 C 43.989 41.214,44.417 40.767,44.618 40.583 C 44.819 40.400,45.418 39.790,45.950 39.227 C 46.482 38.664,47.442 37.649,48.083 36.972 C 48.725 36.294,49.737 35.184,50.333 34.505 C 53.635 30.742,54.089 30.433,56.083 30.598 C 56.817 30.659,57.744 30.807,58.145 30.927 M66.500 31.681 C 66.972 31.895,67.898 32.673,68.998 33.781 C 69.959 34.749,71.159 35.885,71.664 36.304 C 72.170 36.724,73.483 37.935,74.583 38.995 C 75.683 40.055,77.631 41.896,78.912 43.086 C 80.193 44.276,81.993 45.992,82.912 46.899 C 83.831 47.807,84.969 48.834,85.439 49.182 C 85.910 49.531,86.445 50.006,86.628 50.239 C 86.811 50.472,87.404 50.996,87.946 51.403 C 88.488 51.810,89.034 52.336,89.160 52.572 C 89.286 52.807,89.451 53.000,89.526 53.000 C 89.601 53.000,90.215 53.544,90.890 54.208 C 91.566 54.873,92.769 56.054,93.564 56.833 C 95.831 59.054,96.667 60.407,96.667 61.854 C 96.667 63.952,96.266 64.447,94.720 64.253 L 93.779 64.136 90.660 61.026 C 87.846 58.221,83.521 54.042,79.938 50.667 C 79.209 49.979,77.736 48.554,76.666 47.500 C 75.595 46.446,73.797 44.721,72.670 43.667 C 71.543 42.612,69.784 40.916,68.763 39.896 C 67.047 38.185,66.836 38.028,66.012 37.851 C 65.111 37.658,64.333 37.881,64.333 38.333 C 64.333 38.421,63.940 38.802,63.458 39.180 C 62.968 39.565,62.415 40.195,62.200 40.611 C 61.984 41.030,61.569 41.500,61.252 41.688 C 60.941 41.871,60.541 42.270,60.361 42.574 C 60.182 42.878,59.708 43.352,59.307 43.627 C 58.211 44.382,56.185 46.426,52.917 50.076 C 52.275 50.793,51.337 51.800,50.833 52.315 C 48.378 54.820,42.443 61.043,41.569 62.028 C 39.648 64.192,37.632 64.088,36.907 61.788 C 36.478 60.429,36.994 59.569,40.381 55.989 C 40.951 55.387,41.642 54.637,41.918 54.322 C 42.193 54.007,42.718 53.482,43.084 53.155 C 43.836 52.483,48.808 47.350,50.583 45.412 C 51.225 44.711,51.932 43.976,52.154 43.778 C 52.377 43.579,52.789 43.157,53.071 42.840 C 53.353 42.524,53.871 41.999,54.222 41.674 C 55.048 40.911,57.228 38.723,58.083 37.800 C 58.450 37.404,59.012 36.837,59.333 36.540 C 59.654 36.243,60.329 35.506,60.833 34.902 C 63.466 31.745,64.876 30.944,66.500 31.681 M65.924 43.126 C 66.869 43.767,76.635 53.605,81.250 58.564 C 83.311 60.779,85.484 62.968,86.976 64.333 C 88.460 65.691,93.009 70.670,93.183 71.126 C 93.717 72.532,93.430 73.195,91.250 75.583 C 90.413 76.500,89.378 77.712,88.950 78.276 C 88.522 78.840,87.477 79.864,86.627 80.552 C 84.633 82.167,82.134 84.782,77.750 89.837 C 76.925 90.789,75.922 91.871,75.521 92.242 C 72.963 94.608,70.095 97.425,69.167 98.484 C 66.470 101.558,65.315 102.646,64.433 102.943 C 62.401 103.629,58.833 102.964,58.833 101.899 C 58.833 101.781,59.672 100.873,60.696 99.883 C 63.063 97.596,63.053 97.607,63.977 96.417 C 64.672 95.521,68.522 91.764,71.804 88.779 C 73.189 87.518,75.108 85.484,76.075 84.250 C 76.750 83.388,78.414 81.501,79.014 80.917 C 79.202 80.733,79.670 80.252,80.053 79.847 C 80.436 79.442,80.926 78.954,81.141 78.763 C 81.356 78.573,82.256 77.782,83.141 77.006 C 86.603 73.969,86.999 73.434,86.874 71.963 L 86.793 71.008 82.869 67.046 C 80.710 64.866,77.843 61.921,76.496 60.500 C 73.591 57.436,71.011 54.824,67.519 51.417 C 61.771 45.806,60.983 44.068,63.712 43.019 C 64.870 42.574,65.129 42.586,65.924 43.126 M139.988 51.476 C 145.330 52.870,147.309 57.147,145.092 62.500 C 144.065 64.978,144.062 65.088,145.000 65.777 C 145.412 66.079,145.985 66.547,146.273 66.816 C 146.561 67.085,147.102 67.499,147.477 67.736 C 150.108 69.397,150.289 76.838,147.764 79.553 C 146.907 80.475,143.492 81.716,141.037 81.997 C 138.605 82.276,118.780 82.218,118.091 81.931 C 117.191 81.555,115.090 80.074,114.600 79.470 C 113.730 78.399,113.483 78.189,112.954 78.073 C 111.811 77.822,109.570 75.474,109.258 74.199 C 108.902 72.746,108.932 53.014,109.291 52.387 C 110.061 51.042,110.296 51.023,125.500 51.069 C 138.378 51.108,138.605 51.115,139.988 51.476 M177.408 51.236 C 178.648 51.476,178.477 51.344,180.273 53.452 C 180.653 53.897,181.312 54.852,181.739 55.574 C 182.166 56.296,182.704 57.111,182.934 57.385 C 183.165 57.659,183.569 58.311,183.833 58.833 C 184.097 59.356,184.495 60.001,184.718 60.267 C 184.941 60.533,185.393 61.287,185.722 61.942 C 186.052 62.598,187.035 64.193,187.908 65.487 C 188.781 66.782,189.618 68.083,189.768 68.379 C 190.258 69.343,192.719 73.066,193.325 73.760 C 193.651 74.132,194.117 74.770,194.362 75.177 C 194.607 75.584,195.338 76.696,195.987 77.649 C 197.146 79.351,197.167 79.400,197.167 80.449 L 197.167 81.517 196.542 81.786 C 194.830 82.523,192.879 82.059,191.737 80.644 C 191.286 80.085,190.722 79.393,190.485 79.105 C 190.247 78.818,189.787 78.171,189.462 77.667 C 189.137 77.162,188.411 76.300,187.847 75.750 L 186.823 74.750 175.620 74.700 C 168.276 74.667,164.216 74.709,163.833 74.821 C 163.123 75.030,161.622 76.442,161.171 77.324 C 160.990 77.679,160.539 78.320,160.169 78.748 C 159.798 79.176,159.390 79.726,159.261 79.971 C 158.438 81.540,156.536 82.387,154.897 81.915 C 152.788 81.309,153.011 80.002,155.897 76.071 C 156.183 75.681,156.604 75.044,156.833 74.654 C 157.063 74.265,157.428 73.730,157.646 73.465 C 157.864 73.201,158.260 72.451,158.526 71.798 C 158.794 71.137,159.299 70.296,159.664 69.900 C 160.024 69.509,160.424 68.940,160.552 68.636 C 160.680 68.332,161.123 67.670,161.535 67.166 C 161.948 66.661,162.569 65.798,162.914 65.249 C 163.260 64.699,163.750 64.025,164.003 63.750 C 164.454 63.259,165.055 62.318,166.719 59.500 C 167.178 58.721,167.802 57.805,168.104 57.466 C 168.405 57.126,168.807 56.545,168.996 56.174 C 169.185 55.803,169.695 54.947,170.128 54.271 C 170.562 53.595,171.041 52.814,171.192 52.535 C 171.901 51.233,174.540 50.682,177.408 51.236 M224.351 51.253 C 225.191 51.540,225.928 52.154,226.215 52.808 C 226.353 53.123,226.434 56.415,226.496 64.250 L 226.583 75.250 226.984 75.894 C 227.745 77.119,227.299 77.073,239.433 77.167 C 251.346 77.258,250.629 77.189,251.093 78.299 C 251.497 79.267,251.402 79.614,250.459 80.611 C 248.847 82.315,250.236 82.179,234.991 82.128 L 221.648 82.083 221.325 81.667 C 220.589 80.716,220.583 80.605,220.583 66.333 C 220.583 54.032,220.609 52.703,220.858 52.250 C 221.296 51.451,221.692 51.193,222.585 51.124 C 223.042 51.089,223.460 51.047,223.512 51.030 C 223.564 51.014,223.942 51.114,224.351 51.253 M293.463 51.150 C 296.108 51.526,296.955 54.591,294.750 55.808 C 294.300 56.056,292.888 56.092,280.576 56.167 C 264.767 56.263,266.238 56.080,265.649 58.021 C 265.013 60.115,265.495 62.825,266.628 63.530 L 267.250 63.917 279.667 64.000 C 293.243 64.091,292.357 64.016,293.396 65.165 C 294.822 66.745,294.759 67.763,293.184 68.539 L 292.417 68.917 279.734 69.000 C 265.693 69.092,266.878 68.986,265.972 70.233 C 265.230 71.255,265.246 74.933,265.997 75.969 C 266.917 77.239,265.770 77.143,280.583 77.199 L 293.917 77.250 294.615 77.623 C 296.517 78.640,296.579 80.739,294.738 81.790 L 294.083 82.164 278.083 82.124 C 259.811 82.078,261.154 82.190,260.365 80.639 L 259.969 79.861 259.975 66.690 C 259.983 51.116,259.873 52.005,261.875 51.313 C 262.805 50.992,291.318 50.844,293.463 51.150 M208.380 51.396 C 208.675 51.522,209.142 51.865,209.417 52.157 L 209.917 52.688 209.917 65.303 L 209.917 77.917 209.456 78.854 C 208.330 81.147,205.258 81.811,204.316 79.965 C 203.974 79.296,203.826 54.725,204.153 53.033 C 204.457 51.463,206.599 50.634,208.380 51.396 M306.230 51.564 C 306.892 51.841,307.480 52.399,315.535 60.403 C 319.760 64.601,320.832 65.579,321.680 66.007 L 322.708 66.526 323.812 66.231 C 324.873 65.948,324.997 65.857,326.948 63.927 C 328.066 62.821,329.593 61.354,330.342 60.667 C 331.091 59.979,332.801 58.300,334.143 56.935 C 338.580 52.424,338.863 52.166,339.955 51.654 C 341.952 50.716,344.500 51.218,344.500 52.549 C 344.500 53.008,343.244 54.635,341.770 56.083 C 341.117 56.725,338.549 59.313,336.064 61.833 C 333.578 64.354,330.465 67.480,329.147 68.779 C 325.896 71.982,325.833 72.126,325.833 76.402 C 325.833 80.793,325.531 81.539,323.564 81.993 C 320.990 82.586,320.009 81.041,320.004 76.383 C 319.999 72.135,319.817 71.566,317.898 69.804 C 317.175 69.141,316.229 68.219,315.796 67.757 C 315.363 67.295,314.801 66.729,314.546 66.500 C 314.292 66.271,313.783 65.758,313.417 65.361 C 313.050 64.964,310.602 62.480,307.976 59.840 C 305.351 57.200,302.945 54.638,302.629 54.145 C 302.313 53.653,301.930 53.147,301.778 53.021 C 300.325 51.824,303.984 50.626,306.230 51.564 M115.785 56.235 C 114.260 56.563,114.250 56.585,114.250 59.638 C 114.250 64.033,113.945 63.886,123.250 63.966 C 138.500 64.099,140.168 63.696,140.166 59.882 C 140.165 57.669,138.810 56.451,136.025 56.158 C 133.764 55.920,116.954 55.984,115.785 56.235 M175.276 57.019 C 174.320 57.166,173.936 57.477,173.399 58.536 C 173.180 58.968,172.771 59.583,172.490 59.902 C 172.209 60.222,171.778 60.844,171.531 61.284 C 170.577 62.985,169.049 65.252,168.310 66.066 C 167.642 66.801,166.773 68.865,167.039 69.087 C 167.696 69.636,168.122 69.667,175.164 69.667 C 183.151 69.667,183.467 69.626,183.268 68.634 C 183.019 67.386,182.803 66.841,182.316 66.231 C 182.032 65.875,181.619 65.228,181.398 64.793 C 180.930 63.874,179.266 61.251,178.461 60.167 C 178.155 59.754,177.573 58.875,177.167 58.212 C 176.322 56.835,176.352 56.854,175.276 57.019 M26.520 67.626 C 27.145 68.041,29.236 70.322,29.547 70.928 C 29.692 71.209,30.115 71.650,30.488 71.909 C 30.861 72.167,31.167 72.447,31.167 72.530 C 31.167 72.613,31.635 73.151,32.208 73.726 C 32.781 74.300,33.451 74.990,33.697 75.260 C 33.943 75.529,34.646 76.200,35.258 76.750 C 35.871 77.300,36.794 78.162,37.311 78.667 C 37.827 79.171,38.524 79.788,38.859 80.038 C 39.194 80.288,39.628 80.751,39.823 81.066 C 40.018 81.382,40.433 81.791,40.746 81.976 C 41.059 82.160,41.467 82.608,41.651 82.970 C 41.836 83.332,42.309 83.879,42.702 84.185 C 43.095 84.491,43.483 84.848,43.564 84.979 C 43.645 85.109,44.432 85.918,45.314 86.776 C 46.195 87.633,47.329 88.738,47.833 89.231 C 48.337 89.723,48.955 90.256,49.205 90.414 C 49.456 90.572,49.817 90.954,50.009 91.264 C 50.200 91.574,50.668 92.036,51.049 92.292 C 51.431 92.548,51.948 93.064,52.199 93.438 C 52.775 94.295,54.525 95.150,54.978 94.796 C 55.901 94.075,61.876 88.181,67.782 82.167 C 69.717 80.196,72.340 77.571,73.611 76.333 C 74.883 75.096,76.749 73.209,77.759 72.140 C 80.278 69.475,81.684 69.040,83.079 70.495 C 84.031 71.489,83.400 74.063,82.002 74.889 C 81.724 75.053,81.353 75.464,81.178 75.802 C 80.765 76.603,74.754 82.423,73.595 83.144 C 73.394 83.270,73.054 83.629,72.838 83.944 C 72.623 84.258,72.215 84.678,71.932 84.876 C 71.451 85.212,69.952 86.737,67.795 89.083 C 65.301 91.797,63.763 93.315,63.421 93.401 C 63.213 93.453,62.831 93.778,62.573 94.123 C 61.959 94.940,59.922 96.908,59.125 97.451 C 58.781 97.686,58.500 97.946,58.500 98.029 C 58.500 98.308,55.637 101.028,55.111 101.250 C 54.334 101.577,52.604 100.923,51.931 100.048 C 51.316 99.248,45.903 93.817,45.054 93.148 C 43.527 91.945,41.588 90.105,40.083 88.431 C 39.533 87.819,37.856 86.103,36.357 84.618 C 32.756 81.051,32.862 81.151,32.000 80.458 C 30.901 79.575,28.692 77.397,27.743 76.262 C 27.288 75.718,26.419 74.797,25.811 74.215 C 24.847 73.292,24.657 73.007,24.330 71.991 C 23.386 69.053,24.707 66.420,26.520 67.626 M115.917 69.106 C 114.392 69.923,114.167 70.460,114.167 73.283 C 114.168 75.903,114.310 76.315,115.471 77.084 L 116.121 77.514 126.768 77.504 C 138.207 77.493,138.741 77.472,140.232 76.977 C 143.339 75.945,144.292 74.252,143.411 71.327 C 143.275 70.877,141.672 69.816,140.442 69.363 L 139.250 68.925 127.833 68.881 C 117.614 68.843,116.364 68.866,115.917 69.106 " stroke="none" fill="#fbfbfb" fill-rule="evenodd"></path></g></svg>